<svg width="84" height="66" viewBox="0 0 84 66" fill="none" xmlns="http://www.w3.org/2000/svg">
<path d="M17.5816 64.1118C16.5111 64.1809 15.5327 64.0625 14.7696 63.7713C13.9811 63.47 13.7187 63.1897 13.9048 62.8476C14.0347 62.6086 14.1157 62.6168 14.7413 62.9149C16.0764 63.5569 17.5718 63.5355 19.823 62.8416C22.7597 61.9371 24.7555 60.3945 26.0128 58.0578C26.7292 56.7247 27.0646 56.4315 27.2307 56.9937C27.3436 57.3759 26.4993 58.9986 25.6866 59.9622C24.1974 61.7258 22.7569 62.6551 20.2265 63.4796C19.0133 63.8749 18.1802 64.0745 17.5816 64.1118ZM17.6562 61.4859C14.8939 61.5526 13.1922 60.0499 12.9321 57.3176C12.7081 54.9628 14.2334 51.9308 16.7055 49.8175C18.4116 48.3589 21.0334 46.7469 23.6362 45.5593C25.3294 44.7848 25.8862 44.378 26.043 43.8007C26.2088 43.1837 26.5508 39.5948 26.4693 39.3189C26.4288 39.1817 26.228 39.3437 25.8016 39.8611C25.0288 40.7969 24.4455 41.1954 23.4085 41.4921C22.4491 41.7691 22.0381 41.6868 21.2258 41.0604C20.4139 40.4355 20.1069 39.8524 19.6965 38.1591C19.2738 36.4133 19.207 34.71 19.4685 32.4075C19.6347 30.9498 20.2266 28.2176 20.6775 26.833C21.1843 25.2683 23.0047 24.2347 23.7121 25.1087C24.0711 25.5529 24.0878 26.1849 23.7787 27.5228C23.0381 30.7289 22.918 35.9272 23.5324 38.2404C23.8845 39.5627 24.0542 39.5125 24.9305 37.8354C26.0451 35.6997 26.797 33.0261 27.3593 29.2053C28.2382 23.2358 28.485 22.0944 29.0112 21.5892C29.6667 20.9623 30.5402 20.9594 30.7241 21.5821C30.7856 21.7901 30.7348 23.2747 30.6122 24.88C30.4882 26.4857 30.2611 29.9748 30.1065 32.634C29.9519 35.2932 29.7402 38.8452 29.6359 40.5285C29.5311 42.2103 29.4857 43.6099 29.5335 43.6359C29.6367 43.692 33.4813 43.0423 38.3809 42.1404C42.9796 41.2953 47.2809 40.1225 51.4525 38.5757C53.1415 37.9499 54.9385 37.3148 55.4446 37.1653C56.3403 36.9007 56.3826 36.9026 56.9348 37.2513C57.4394 37.5691 57.5154 37.6798 57.6107 38.2196C57.8515 39.5779 57.1817 40.1833 54.2522 41.2589C51.8049 42.1583 45.6828 43.9669 43.5513 44.4201C41.5979 44.8351 40.0753 45.025 33.8312 45.6279C31.2712 45.874 29.153 46.0842 29.1249 46.0925C29.0969 46.1008 28.9008 46.8871 28.6878 47.8388C27.6976 52.2801 26.1636 55.7928 24.1938 58.1347C22.7408 59.8635 19.671 61.4361 17.6562 61.4859ZM20.3775 58.6685C20.814 58.4192 21.4257 57.9481 21.7398 57.6211C22.8444 56.4669 24.0919 53.7657 24.8399 50.9104C25.2565 49.3225 25.6508 47.2632 25.5832 47.0345C25.51 46.7866 24.4867 47.1242 22.8102 47.9499C20.6578 49.0109 19.305 50.0796 17.9761 51.7669C17.2689 52.6641 16.4584 54.2271 16.3166 54.9637C15.9997 56.6119 16.5264 58.3783 17.5196 58.9978C18.3217 59.4972 19.0773 59.4104 20.3775 58.6685ZM12.2483 61.7534C12.0994 61.5696 11.8915 61.0615 11.7863 60.6241C11.6076 59.8779 11.6158 59.8241 11.9257 59.7326C12.24 59.6398 12.2695 59.6744 12.5084 60.4236C12.6478 60.8573 12.8268 61.3547 12.907 61.5284C13.0208 61.7723 12.9929 61.8736 12.7862 61.9667C12.5928 62.056 12.4454 61.9968 12.2483 61.7534ZM71.1871 28.5215C69.8409 28.2822 69.1135 26.1403 69.8727 24.6534C70.2439 23.9277 70.6992 23.5574 71.5026 23.328C72.3415 23.0883 72.8696 23.2194 73.4267 23.8073C74.1553 24.5739 74.2777 26.2753 73.6779 27.2755C73.1386 28.176 72.1151 28.6869 71.1871 28.5215ZM34.8696 38.1673C34.0817 37.9605 33.7775 37.691 33.2757 36.7579C32.7674 35.8139 32.5308 34.3613 32.5656 32.3937C32.6219 29.0977 33.7494 25.0073 34.9797 23.6379C35.4891 23.0703 36.6766 23.2232 36.8714 23.8828C36.9194 24.0451 36.7875 25.1574 36.5786 26.3566C35.8809 30.365 35.7028 33.5204 36.0915 35.026C36.3957 36.2132 36.6178 36.1941 37.2535 34.9298C38.1354 33.174 38.5583 31.5266 39.4177 26.4901C40.2957 21.3487 40.4488 20.8783 41.3105 20.6238C41.641 20.5261 41.8419 20.5598 42.0647 20.7491C42.4559 21.0796 42.4634 21.3549 42.1876 25.1841C41.8075 30.4416 41.7864 32.7163 42.1047 33.8047C42.2329 34.2385 42.2896 34.2892 42.5626 34.2085C43.3756 33.9683 44.4242 31.5874 44.8567 29.0001C45.0236 28.001 45.2791 26.0148 45.4238 24.5875C45.9085 19.8414 46.3833 18.1144 47.2849 17.8208C48.2711 17.499 48.5127 18.1319 48.3886 20.7259C48.3411 21.7491 48.3251 22.5801 48.3531 22.5718C48.3826 22.5631 48.6507 21.7924 48.9507 20.8583C49.9514 17.7342 50.945 16.1989 52.2028 15.8241C53.6661 15.3902 54.437 16.5551 54.6253 19.4899C54.6557 19.9511 54.7097 20.3458 54.7465 20.367C54.7828 20.3868 54.8975 20.0962 55.0019 19.722C56.0214 16.0533 56.7674 14.3586 57.7521 13.4612C58.5009 12.7811 59.4168 12.509 59.9896 12.797C61.1529 13.3839 61.4118 14.6839 61.3572 19.6639C61.3464 20.6971 61.363 22.0511 61.395 22.6753C61.4594 23.9253 61.7998 25.2895 62.0685 25.3626C62.503 25.4813 63.5436 23.2904 64.2046 20.8683C64.7191 18.982 64.9701 18.3816 65.2844 18.2888C65.8672 18.1166 65.9343 19.077 65.4935 21.2833C64.9481 24.0097 64.242 25.7361 63.3282 26.5691C62.7225 27.1203 61.1937 27.6585 60.5713 27.5392C59.7138 27.3738 59.2955 26.9134 58.866 25.6605C58.3736 24.2273 58.3114 22.7296 58.6089 19.3977C58.8342 16.8636 58.8474 15.2955 58.6482 14.9468C58.4621 14.6264 57.5573 16.5221 56.942 18.5232C55.9808 21.6452 55.3898 25.2981 55.4826 27.5456C55.5467 29.115 55.415 29.7443 54.9357 30.1747C54.3951 30.6584 53.9505 30.7609 53.4208 30.5211C53.0176 30.3402 52.9315 30.2116 52.6012 29.2889C52.0805 27.8415 51.9817 26.5295 52.0424 21.9231C52.0709 19.744 52.0562 17.9402 52.0103 17.9153C51.844 17.8248 51.1633 18.9853 50.7369 20.0836C49.6903 22.7864 48.8592 27.1198 48.8235 30.0567C48.7911 32.9012 48.6625 33.2696 47.6001 33.5835C46.9449 33.777 46.4851 33.5294 46.0519 32.7526L45.6805 32.0874L45.3031 33.0636C44.5289 35.07 43.8058 35.8483 42.302 36.2973C41.3847 36.5699 41.3141 36.5699 40.6728 36.262C40.2519 36.0591 39.8861 35.7549 39.6852 35.4388C39.5092 35.1635 39.3424 34.9192 39.3134 34.8972C39.2835 34.8772 39.0097 35.2757 38.7015 35.7855C37.6171 37.5835 36.1395 38.5013 34.8696 38.1673ZM70.4116 22.0027C69.7236 21.569 69.8013 21.9135 68.9292 15.4858C67.7582 6.84574 67.2777 2.51475 67.4103 1.77446C67.5314 1.10339 67.8548 0.704629 68.4127 0.534993C69.0577 0.339638 69.5734 0.391033 70.0953 0.702127C70.8419 1.14415 70.9355 1.79196 71.5585 10.7928C72.1646 19.5516 72.222 21.2609 71.9288 21.7999C71.6346 22.3409 71.0663 22.4157 70.4116 22.0027ZM62.697 14.0652C62.6344 14.0324 62.4882 13.6841 62.3731 13.2945C62.2218 12.7825 62.2129 12.5461 62.341 12.4473C62.757 12.1287 63.2341 12.7659 63.2563 13.6722C63.2643 13.9762 62.9455 14.2004 62.697 14.0652ZM55.3315 13.6581C54.9607 13.174 55.8348 11.7286 56.9192 11.0328C58.5447 9.9911 60.9207 10.0127 61.9291 11.0802C62.5406 11.7273 61.9947 12.041 61.2099 11.4915C60.2012 10.7868 58.5687 10.8872 57.2385 11.7391C56.8039 12.0166 56.5098 12.357 56.2003 12.9442C55.7398 13.8182 55.564 13.9616 55.3315 13.6581Z" fill="url(#paint0_linear_1_5271)"/>
<defs>
<linearGradient id="paint0_linear_1_5271" x1="99.7242" y1="47.2249" x2="37.4986" y2="-41.5015" gradientUnits="userSpaceOnUse">
<stop offset="0.245343" stop-color="#EFB31A"/>
<stop offset="0.444137" stop-color="#F9E7B7"/>
<stop offset="0.603908" stop-color="#FBC437"/>
<stop offset="0.765543" stop-color="#FAE09E"/>
</linearGradient>
</defs>
</svg>
